HIERARCHY
ROOT Hips
{
	OFFSET 0.00000 0.00000 0.00000
	CHANNELS 6 Xposition Yposition Zposition Zrotation Yrotation Xrotation 
	JOINT LHipJoint
	{
		OFFSET 0 0 0
		CHANNELS 3 Zrotation Yrotation Xrotation
		JOINT LeftHip
		{
			OFFSET 1.75344 -1.53157 0.77399
			CHANNELS 3 Zrotation Yrotation Xrotation
			JOINT LeftKnee
			{
				OFFSET 2.25415 -6.19323 0.00000
				CHANNELS 3 Zrotation Yrotation Xrotation
				JOINT LeftAnkle
				{
					OFFSET 2.30342 -6.32861 0.00000
					CHANNELS 3 Zrotation Yrotation Xrotation
					JOINT LeftToe
					{
						OFFSET 0.10958 -0.30108 1.49206
						CHANNELS 3 Zrotation Yrotation Xrotation
						End Site
						{
							OFFSET 0.00000 -0.00000 0.77783
						}
					}
				}
			}
		}
	}
	JOINT RHipJoint
	{
		OFFSET 0 0 0
		CHANNELS 3 Zrotation Yrotation Xrotation
		JOINT RightHip
		{
			OFFSET -1.81912 -1.53156 0.77399
			CHANNELS 3 Zrotation Yrotation Xrotation
			JOINT RightKnee
			{
				OFFSET -2.22882 -6.12365 0.00000
				CHANNELS 3 Zrotation Yrotation Xrotation
				JOINT RightAnkle
				{
					OFFSET -2.21943 -6.09785 0.00000
					CHANNELS 3 Zrotation Yrotation Xrotation
					JOINT RightToe
					{
						OFFSET -0.18931 -0.52012 1.59379
						CHANNELS 3 Zrotation Yrotation Xrotation
						End Site
						{
							OFFSET -0.00000 -0.00000 0.84686
						}
					}
				}
			}
		}
	}
	JOINT lowerback
	{
		OFFSET 0 0 0
		CHANNELS 3 Zrotation Yrotation Xrotation
		JOINT Chest
		{
			OFFSET -0.00200 1.66634 -0.14248
			CHANNELS 3 Zrotation Yrotation Xrotation
			JOINT Chest2
			{
				OFFSET -0.00875 1.64542 0.09514
				CHANNELS 3 Zrotation Yrotation Xrotation
				JOINT lowerneck
				{
					OFFSET 0 0 0
					CHANNELS 3 Zrotation Yrotation Xrotation
					JOINT Neck
					{
						OFFSET 0.02257 1.59605 0.00839
						CHANNELS 3 Zrotation Yrotation Xrotation
						JOINT Head
						{
							OFFSET -0.10214 1.57530 -0.23335
							CHANNELS 3 Zrotation Yrotation Xrotation
							End Site
							{
								OFFSET -0.03588 1.60717 -0.08062
							}
						}
					}
				}
				JOINT LeftCollar
				{
					OFFSET 0 0 0
					CHANNELS 3 Zrotation Yrotation Xrotation
					JOINT LeftShoulder
					{
						OFFSET 2.54983 1.10186 0.40078
CHANNELS 3 Zrotation Xrotation Yrotation
						JOINT LeftElbow
						{
OFFSET 0 -4.288400 0.000000
CHANNELS 3 Zrotation Xrotation Yrotation
							JOINT LeftWrist
							{
OFFSET 0 -3.065520 -0.000000
CHANNELS 3 Zrotation Xrotation Yrotation
								JOINT lhand
								{
									OFFSET 0 0 0
CHANNELS 3 Zrotation Xrotation Yrotation
									JOINT LFingers
									{
OFFSET 0 -0.753040 0.000000
CHANNELS 3 Zrotation Xrotation Yrotation
										End Site
										{
OFFSET 0 -0.607120 0.000000
										}
									}
								}
								JOINT LThumb
								{
OFFSET 0 0.000000 0.000000
CHANNELS 3 Zrotation Xrotation Yrotation
									End Site
									{
OFFSET 0 -0.616390 0.616390
									}
								}
							}
						}
					}
				}
				JOINT RightCollar
				{
					OFFSET 0 0 0
					CHANNELS 3 Zrotation Yrotation Xrotation
					JOINT RightShoulder
					{
						OFFSET -2.60909 1.35448 0.21802
CHANNELS 3 Zrotation Xrotation Yrotation
						JOINT RightElbow
						{
OFFSET 0 -4.521720 -0.000000
CHANNELS 3 Zrotation Xrotation Yrotation
							JOINT RightWrist
							{
OFFSET 0 -2.891400 0.000000
CHANNELS 3 Zrotation Xrotation Yrotation
								JOINT rhand
								{
									OFFSET 0 0 0
CHANNELS 3 Zrotation Xrotation Yrotation
									JOINT RFingers
									{
OFFSET 0 -0.680540 0.000000
CHANNELS 3 Zrotation Xrotation Yrotation
										End Site
										{
OFFSET 0 -0.548670 0.000000
										}
									}
								}
								JOINT RThumb
								{
OFFSET 0 0.000000 0.000000
CHANNELS 3 Zrotation Xrotation Yrotation
									End Site
									{
OFFSET 0 -0.557050 0.557050
									}
								}
							}
						}
					}
				}
			}
		}
	}
}
MOTION
Frames: 5
Frame Time: 0.008333333333333333
9.291042 15.270333 -35.446818 -3.020435 -0.339481 -356.171963 0.000000 0.000000 0.000000 -9.608076 -29.672017 -25.129995 2.459452 9.763828 28.215232 0.999813 13.397190 -28.015277 0.095947 -1.961792 -5.401403 0.000000 0.000000 0.000000 36.361321 6.409505 15.897803 0.000000 0.000000 0.000000 1.693369 -27.990856 -29.000795 -0.934181 -6.153932 17.232422 2.050526 1.077486 7.341885 0.113407 1.700457 -5.213977 -1.294311 0.692746 -9.615864 -7.524325 -4.259054 -6.021502 9.351279 -6.401933 15.427854 3.750233 -2.888005 6.188687 0.000000 0.000000 0.000000 2.990516 13.305886 -32.175771 19.543374 -30.088235 5.300503 13.164678 8.051134 33.845856 0.000000 0.000000 0.000000 -7.125000 0.000000 0.000000 -10.650919 -4.047887 -11.572490 0.000000 0.000000 0.000000 -3.384434 9.481053 32.398774 -16.856789 -26.668605 -4.022904 2.431027 17.822300 52.633075 0.000000 0.000000 0.000000 7.125000 0.000000 0.000000 72.989895 70.382798 -52.192014
9.344045 15.262177 -35.236161 -3.091807 -0.189520 -355.946164 0.000000 0.000000 0.000000 -10.286813 -29.341968 -24.404611 2.456154 9.757790 28.195859 0.927201 13.379613 -27.471028 0.133653 -2.349255 -6.472223 0.000000 0.000000 0.000000 36.167739 5.796665 16.285463 0.000000 0.000000 0.000000 1.818073 -28.087898 -28.198119 -0.662253 -5.200921 14.483359 2.245645 1.094507 7.158001 0.156013 1.748205 -5.386069 -1.363369 0.702426 -9.691100 -7.397127 -4.303619 -6.107912 9.388143 -6.536772 16.181498 3.733489 -2.931505 6.450527 0.000000 0.000000 0.000000 2.943201 13.724973 -31.490036 19.489195 -30.022011 5.273396 12.860542 6.880745 34.057440 0.000000 0.000000 0.000000 -7.125000 0.000000 0.000000 -10.839330 -4.207382 -11.812026 0.000000 0.000000 0.000000 -4.386724 9.220784 32.500151 -16.392778 -26.050219 -3.816840 2.746327 18.321299 53.168542 0.000000 0.000000 0.000000 7.125000 0.000000 0.000000 74.591894 70.433569 -53.752631
9.415851 15.284201 -34.997574 -2.784079 -0.403318 -355.738225 0.000000 0.000000 0.000000 -11.233318 -30.329608 -23.083870 2.453253 9.752343 28.178335 0.734490 14.981711 -27.660972 0.267338 -3.325186 -9.185494 0.000000 0.000000 0.000000 35.436403 5.454138 16.925162 0.000000 0.000000 0.000000 1.979464 -28.190781 -27.037611 -0.417355 -4.139009 11.469093 2.345561 1.127300 6.715540 0.026082 1.781912 -5.513057 -1.552952 0.708537 -9.559521 -7.408689 -4.145166 -6.255105 9.645443 -6.413202 16.961096 3.834716 -2.839413 6.720165 0.000000 0.000000 0.000000 2.943086 14.212348 -30.293579 19.409105 -29.923862 5.233352 12.223758 7.351669 33.449771 0.000000 0.000000 0.000000 -7.125000 0.000000 0.000000 -11.132833 -3.510888 -12.016282 0.000000 0.000000 0.000000 -5.293574 8.783865 32.063343 -15.886341 -25.366202 -3.597283 2.255202 19.958008 53.253706 0.000000 0.000000 0.000000 7.125000 0.000000 0.000000 74.569737 70.625652 -53.969765
9.500172 15.314728 -34.750450 -2.350163 -0.984998 -355.341990 0.000000 0.000000 0.000000 -12.121704 -30.872180 -22.131792 2.400208 9.654117 27.863888 0.732431 15.513795 -28.209627 0.094358 -1.979974 -5.450379 0.000000 0.000000 0.000000 34.535025 5.535978 17.560347 0.000000 0.000000 0.000000 2.262664 -28.612545 -25.409625 -0.238289 -3.141332 8.672536 2.260910 1.249519 6.013395 -0.067170 1.911548 -5.636726 -1.604904 0.778153 -9.271789 -7.099441 -4.066855 -6.519642 9.186426 -6.322029 17.931848 3.644749 -2.791302 7.046042 0.000000 0.000000 0.000000 2.813795 14.331080 -29.102718 19.154080 -29.609681 5.106777 10.475962 8.972259 33.551152 0.000000 0.000000 0.000000 -7.125000 0.000000 0.000000 -12.104263 -3.349922 -13.079503 0.000000 0.000000 0.000000 -6.169343 8.306338 31.735394 -15.743221 -25.171275 -3.536007 1.948114 21.217219 54.446174 0.000000 0.000000 0.000000 7.125000 0.000000 0.000000 77.713744 71.041763 -57.474875
9.592660 15.338348 -34.487883 -2.014989 -0.845925 -355.340658 0.000000 0.000000 0.000000 -13.515269 -30.127017 -20.993208 2.334565 9.530733 27.470025 0.731942 15.047685 -27.711797 0.081028 -1.836330 -5.053542 0.000000 0.000000 0.000000 33.737939 4.727442 18.366754 0.000000 0.000000 0.000000 2.226758 -28.299378 -24.918172 -0.301492 -3.515434 9.718732 2.649308 1.221116 6.068531 -0.363414 1.896610 -5.980870 -2.143762 0.722314 -9.664560 -6.362440 -3.936867 -6.610995 8.597093 -6.213435 19.116487 3.345821 -2.718596 7.395585 0.000000 0.000000 0.000000 3.367475 14.930195 -28.847431 18.825766 -29.201583 4.945619 8.084741 11.008484 33.369539 0.000000 0.000000 0.000000 -7.125000 0.000000 0.000000 -13.406124 -2.848687 -14.449168 0.000000 0.000000 0.000000 -6.482588 8.633391 30.961291 -15.949150 -25.451627 -3.624085 1.340397 21.895153 55.145309 0.000000 0.000000 0.000000 7.125000 0.000000 0.000000 79.456048 71.400561 -59.607075
